<svg xmlns="http://www.w3.org/2000/svg" xmlns:xlink="http://www.w3.org/1999/xlink" width="500" zoomAndPan="magnify" viewBox="0 0 375 374.999991" height="500" preserveAspectRatio="xMidYMid meet" version="1.0"><defs><g/><clipPath id="b3c7113ee0"><path d="M 83.546875 49.5 L 300.019531 49.5 L 300.019531 265.972656 L 83.546875 265.972656 Z M 83.546875 49.5 " clip-rule="nonzero"/></clipPath><clipPath id="2a70c93640"><path d="M 191.78125 49.5 C 132.003906 49.5 83.546875 97.960938 83.546875 157.738281 C 83.546875 217.515625 132.003906 265.972656 191.78125 265.972656 C 251.558594 265.972656 300.019531 217.515625 300.019531 157.738281 C 300.019531 97.960938 251.558594 49.5 191.78125 49.5 Z M 191.78125 49.5 " clip-rule="nonzero"/></clipPath><clipPath id="d3c5b7b565"><path d="M 132.640625 19.644531 L 250.917969 19.644531 L 250.917969 264.144531 L 132.640625 264.144531 Z M 132.640625 19.644531 " clip-rule="nonzero"/></clipPath></defs><g clip-path="url(#b3c7113ee0)"><g clip-path="url(#2a70c93640)"><path fill="#dac7a2" d="M 83.546875 49.5 L 300.019531 49.5 L 300.019531 265.972656 L 83.546875 265.972656 Z M 83.546875 49.5 " fill-opacity="1" fill-rule="nonzero"/></g></g><g clip-path="url(#d3c5b7b565)"><path fill="#385731" d="M 205.007812 57.539062 C 204.453125 54.679688 203.578125 51.269531 202.519531 48.183594 C 203.210938 45.1875 202.609375 41.867188 201.273438 38.6875 C 199.246094 33.941406 195.46875 29.46875 191.964844 26.890625 C 190.121094 25.550781 187.769531 25 185.882812 23.753906 C 185.234375 23.339844 184.453125 23.15625 183.851562 22.742188 L 183.621094 22.601562 C 183.347656 22.328125 183.070312 22.097656 182.746094 21.957031 C 181.964844 21.589844 181.59375 22.234375 181.546875 22.328125 C 181.457031 22.464844 181.273438 22.925781 181.6875 23.386719 C 181.734375 23.480469 182.195312 23.753906 182.515625 23.984375 C 182.609375 24.078125 182.699219 24.214844 182.792969 24.355469 C 183.070312 24.859375 183.347656 25.460938 183.621094 26.242188 C 184.453125 28.6875 185.234375 32.144531 186.757812 35.601562 C 188.460938 39.472656 192.332031 43.527344 193.761719 45.230469 C 194.820312 46.523438 196.296875 47.03125 197.773438 47.445312 C 198.878906 47.765625 200.03125 47.996094 200.859375 48.78125 C 202.75 54.171875 204.132812 60.71875 203.855469 62.929688 C 203.71875 63.4375 203.578125 63.945312 203.441406 64.449219 C 201.964844 69.382812 200.90625 74.453125 200.121094 79.523438 L 199.984375 79.0625 C 199.339844 76.617188 198.324219 72.839844 197.3125 70.121094 C 196.664062 68.367188 196.019531 67.03125 195.511719 66.570312 C 195.328125 66.386719 195.097656 66.203125 194.867188 66.019531 C 194.820312 65.832031 194.730469 65.601562 194.589844 65.464844 C 194.453125 65.328125 194.316406 65.234375 194.175781 65.097656 C 194.269531 64.636719 194.175781 63.945312 193.945312 63.160156 C 193.347656 60.949219 191.6875 57.675781 191.273438 56.847656 C 190.257812 54.863281 189.523438 52.929688 187.816406 51.363281 C 185.558594 49.289062 177.03125 44.585938 170.808594 43.066406 C 169.472656 42.742188 168.230469 42.558594 167.167969 42.558594 L 167.125 42.558594 C 166.847656 42.558594 166.617188 42.558594 166.386719 42.605469 C 165.417969 42.699219 164.679688 42.972656 164.082031 43.433594 C 163.851562 43.617188 163.757812 43.847656 163.757812 44.078125 C 163.757812 44.265625 163.804688 44.585938 164.082031 44.910156 C 164.402344 45.277344 165.601562 45.96875 165.785156 46.109375 C 167.355469 47.304688 168.460938 48.875 169.613281 50.484375 C 170.535156 51.777344 170.949219 53.34375 171.777344 54.632812 C 174.035156 58.183594 179.519531 62.238281 183.714844 63.160156 C 186.617188 63.804688 189.476562 64.082031 192.011719 65.648438 C 192.75 66.480469 193.578125 67.125 194.316406 67.816406 C 194.730469 68.183594 195.144531 69.289062 195.652344 70.671875 C 196.941406 74.269531 198.324219 79.753906 198.785156 81.410156 C 198.96875 82.148438 198.925781 83.070312 198.925781 83.945312 C 198.925781 84.636719 199.015625 85.28125 199.199219 85.835938 C 199.015625 87.402344 198.832031 88.96875 198.648438 90.492188 C 198.601562 90.582031 198.601562 90.628906 198.554688 90.722656 C 198.464844 90.90625 198.464844 91.136719 198.554688 91.320312 C 198.003906 96.804688 197.496094 102.242188 196.851562 107.679688 C 196.433594 111 196.113281 114.316406 195.742188 117.683594 L 195.742188 117.589844 C 194.269531 109.25 191.042969 100.167969 188.324219 92.105469 C 188.324219 92.011719 188.324219 91.917969 188.324219 91.828125 C 188.183594 89.84375 188.09375 85.144531 188.140625 84.589844 C 188.414062 82.011719 187.402344 79.9375 186.847656 77.539062 C 186.386719 75.511719 185.28125 73.808594 183.898438 72.285156 C 182.65625 70.855469 181.179688 69.519531 180.027344 68.136719 C 178.921875 66.847656 178.136719 66.203125 177.585938 65.925781 C 177.078125 65.648438 176.710938 65.601562 176.523438 65.601562 C 176.523438 65.601562 176.523438 65.601562 176.480469 65.601562 C 175.789062 65.601562 175.601562 66.109375 175.558594 66.25 C 175.417969 66.710938 175.371094 67.402344 175.417969 68.183594 C 175.558594 69.75 175.972656 71.734375 176.15625 72.65625 C 176.753906 76.15625 177.171875 80.121094 179.199219 83.164062 C 180.398438 85.007812 181.917969 86.527344 183.390625 88.140625 C 184.730469 89.613281 185.972656 91.136719 186.757812 93.070312 L 186.757812 93.117188 C 186.757812 93.164062 186.757812 93.164062 186.757812 93.164062 C 186.804688 93.257812 186.847656 93.347656 186.941406 93.441406 C 188.738281 98.742188 190.71875 104.457031 192.242188 110.03125 L 192.195312 109.984375 C 191.042969 108.28125 190.167969 107.265625 185.695312 103.347656 C 182.929688 99.890625 181.089844 97.21875 180.304688 96.207031 C 176.984375 91.78125 172.054688 89.753906 167.125 87.449219 C 166.15625 86.988281 162.054688 85.191406 161.222656 84.867188 C 160.949219 84.777344 160.808594 84.777344 160.761719 84.777344 C 160.441406 84.777344 160.257812 84.914062 160.117188 85.050781 C 159.980469 85.191406 159.839844 85.421875 159.796875 85.742188 C 159.75 86.019531 159.796875 86.433594 159.980469 86.941406 C 160.625 88.96875 163.207031 93.164062 163.804688 93.761719 C 167.078125 97.035156 169.980469 100.492188 174.542969 101.875 C 176.292969 102.382812 178.875 102.613281 181.179688 103.210938 C 182.515625 103.535156 183.761719 103.996094 184.5 104.777344 C 184.542969 104.824219 184.636719 104.917969 184.730469 104.917969 C 188.96875 108.648438 189.707031 109.523438 190.859375 111.277344 C 191.226562 111.875 193.117188 114.917969 193.992188 118.234375 C 193.992188 118.328125 194.039062 118.417969 194.085938 118.464844 C 194.820312 122.84375 195.050781 127.039062 194.453125 130.679688 C 194.40625 130.863281 194.453125 131.046875 194.546875 131.1875 C 192.75 152.433594 191.457031 173.957031 188.046875 194.742188 L 188.046875 194.695312 C 187.355469 189.394531 185.695312 183.679688 183.484375 178.148438 C 183.484375 178.058594 183.4375 177.917969 183.390625 177.828125 C 183.347656 177.6875 183.253906 177.597656 183.207031 177.457031 C 181.824219 174.046875 180.210938 170.730469 178.554688 167.640625 C 177.769531 165.246094 177.214844 163.171875 176.894531 162.113281 C 176.109375 159.390625 175.417969 156.71875 174.359375 154.136719 C 174.222656 153.816406 174.035156 153.261719 173.851562 152.570312 C 173.851562 152.523438 173.851562 152.480469 173.851562 152.433594 C 173.484375 149.484375 173.851562 146.488281 173.992188 143.539062 C 174.128906 140.359375 173.992188 137.222656 172.5625 134.183594 C 171.777344 132.570312 170.71875 130.957031 169.796875 129.390625 C 169.472656 128.882812 169.152344 128.375 168.828125 127.820312 C 168.734375 127.683594 168.414062 127.085938 168.320312 126.992188 C 168.089844 126.808594 167.90625 126.714844 167.722656 126.714844 C 167.675781 126.714844 167.628906 126.714844 167.585938 126.714844 C 167.355469 126.761719 167.167969 126.855469 166.984375 127.085938 C 166.707031 127.5 166.523438 128.007812 166.433594 128.558594 C 166.292969 129.203125 166.246094 129.894531 166.0625 130.402344 C 163.066406 139.574219 167.769531 145.566406 172.054688 152.753906 C 172.332031 153.632812 172.515625 154.324219 172.699219 154.738281 C 173.574219 156.902344 174.222656 159.117188 174.867188 161.328125 L 174.773438 161.191406 C 173.160156 158.699219 171.59375 156.488281 170.074219 154.644531 C 167.675781 151.742188 164.679688 150.128906 162.238281 147.5 C 161.179688 146.347656 160.578125 144.691406 159.566406 143.398438 C 159.472656 143.261719 159.335938 143.125 159.195312 142.9375 C 159.148438 142.753906 159.105469 142.476562 159.011719 142.203125 C 158.414062 140.542969 156.382812 136.808594 156.015625 136.164062 C 155.140625 134.644531 154.773438 132.9375 153.894531 131.460938 C 151.867188 127.960938 148.179688 124.917969 144.722656 122.890625 C 143.386719 122.105469 138.734375 120.953125 135.828125 120.03125 C 134.953125 119.757812 134.078125 119.386719 133.941406 119.339844 C 133.710938 119.109375 133.480469 119.066406 133.292969 119.066406 C 133.15625 119.066406 133.0625 119.109375 133.019531 119.109375 C 132.789062 119.203125 132.417969 119.386719 132.417969 119.894531 C 132.417969 119.941406 132.417969 120.078125 132.464844 120.261719 C 132.558594 120.492188 132.972656 121.460938 132.972656 121.554688 C 133.25 122.335938 133.480469 123.167969 133.753906 123.949219 C 134.675781 126.625 135.785156 129.527344 138.042969 131.417969 C 140.898438 133.722656 143.25 136.992188 146.523438 138.699219 C 148.597656 139.804688 150.898438 140.402344 153.066406 141.1875 C 155.046875 141.925781 156.890625 142.847656 158.226562 144.644531 C 158.273438 144.691406 158.320312 144.78125 158.414062 144.828125 C 159.289062 146.117188 159.933594 147.640625 160.949219 148.746094 C 163.34375 151.328125 166.339844 152.941406 168.691406 155.796875 C 171.316406 158.976562 174.222656 163.308594 176.894531 168.195312 C 176.941406 168.289062 176.941406 168.378906 176.984375 168.472656 C 177.03125 168.609375 177.125 168.746094 177.261719 168.839844 C 177.539062 169.394531 177.863281 169.945312 178.136719 170.5 L 178.046875 170.40625 C 173.714844 166.398438 170.210938 163.863281 165.742188 161.742188 C 165.695312 161.695312 165.601562 161.605469 165.554688 161.511719 C 165.1875 161.144531 164.589844 160.589844 163.898438 160.039062 C 162.238281 158.609375 161.039062 157.042969 159.289062 155.660156 C 155.648438 152.800781 152.375 149.300781 147.90625 147.640625 C 146.015625 146.949219 143.480469 147.039062 141.5 146.949219 C 140.667969 146.949219 139.792969 146.855469 138.964844 146.71875 C 138.734375 146.671875 138.316406 146.625 138.316406 146.625 C 138.273438 146.625 138.226562 146.625 138.179688 146.625 C 137.8125 146.625 137.488281 146.855469 137.351562 147.179688 C 137.210938 147.546875 137.351562 148.007812 137.671875 148.238281 C 137.671875 148.238281 138.042969 148.46875 138.179688 148.609375 C 138.871094 149.207031 139.5625 150.175781 140.070312 150.957031 C 141.542969 153.171875 143.296875 155.382812 145.414062 157.042969 C 147.765625 158.886719 150.394531 160.3125 153.113281 161.464844 C 154.585938 162.109375 156.152344 162.847656 157.8125 162.894531 C 157.859375 162.894531 157.90625 162.894531 157.996094 162.894531 L 158.042969 162.894531 C 160.394531 162.894531 162.558594 162.433594 164.820312 163.308594 C 164.910156 163.355469 165.050781 163.355469 165.140625 163.355469 C 169.566406 165.476562 173.070312 168.058594 177.445312 172.203125 C 178.324219 173.035156 180.121094 175.199219 181.734375 178.242188 C 184.589844 185.292969 186.574219 192.714844 186.617188 199.167969 C 186.617188 200.734375 186.574219 202.484375 186.34375 204.050781 C 186.019531 205.664062 185.652344 207.324219 185.328125 208.9375 C 183.484375 217.1875 180.949219 225.296875 178.597656 233.410156 L 178.597656 233.316406 C 178.554688 231.566406 178.367188 229.816406 178.136719 228.0625 C 178.183594 227.972656 178.230469 227.785156 178.183594 227.601562 C 178.183594 227.601562 178.183594 227.554688 178.136719 227.464844 C 178.09375 227.28125 178 226.863281 177.863281 226.359375 C 177.632812 225.160156 177.402344 223.914062 177.078125 222.71875 C 176.664062 220.964844 176.15625 219.214844 175.601562 217.464844 C 175.789062 216.910156 175.878906 215.851562 175.972656 214.605469 C 176.019531 213.914062 176.0625 213.128906 176.109375 212.394531 C 176.339844 211.65625 176.433594 210.917969 176.386719 210.136719 C 176.433594 209.90625 176.480469 209.71875 176.523438 209.535156 C 178.414062 204.234375 181.226562 199.8125 181.089844 193.910156 C 181.042969 191.929688 181.089844 189.902344 181.316406 187.921875 C 181.316406 187.734375 181.316406 186.539062 181.089844 186.03125 C 180.859375 185.523438 180.488281 185.339844 180.167969 185.339844 C 180.167969 185.339844 180.167969 185.339844 180.121094 185.339844 C 179.980469 185.339844 179.613281 185.386719 179.289062 185.800781 C 178.691406 186.539062 176.433594 190.363281 176.25 190.6875 C 173.945312 194.742188 173.113281 199.351562 173.34375 204.003906 C 173.4375 205.386719 173.898438 206.816406 174.265625 208.292969 C 174.40625 208.890625 174.542969 209.488281 174.589844 210.089844 C 174.40625 211.101562 174.3125 212.394531 174.265625 213.589844 L 174.222656 213.5 C 172.652344 209.214844 170.808594 205.066406 169.058594 201.148438 C 169.058594 201.101562 169.058594 201.054688 169.058594 201.007812 C 169.058594 200.777344 168.964844 200.410156 168.828125 199.949219 C 168.230469 197.875 166.292969 193.496094 166.203125 192.714844 C 165.878906 189.996094 166.015625 187.503906 165.972656 185.109375 C 165.878906 181.238281 165.324219 177.644531 161.871094 173.773438 C 160.625 172.390625 159.242188 170.589844 158.226562 169.070312 C 158.136719 168.886719 158.042969 168.609375 157.953125 168.332031 C 157.8125 168.011719 157.722656 167.734375 157.535156 167.550781 C 157.304688 167.226562 156.984375 167.089844 156.707031 167.089844 C 156.660156 167.089844 156.660156 167.089844 156.613281 167.089844 C 156.429688 167.089844 156.199219 167.136719 155.96875 167.273438 C 155.601562 167.550781 155.277344 168.058594 155.046875 168.703125 C 154.726562 169.761719 154.679688 171.238281 154.542969 171.835938 C 152.605469 181.46875 155.601562 186.167969 159.609375 191.007812 C 162.101562 194.003906 164.957031 197 167.214844 201.378906 C 169.75 206.910156 172.378906 212.992188 174.265625 219.214844 L 174.265625 219.167969 C 172.378906 216.265625 169.886719 213.777344 167.585938 211.195312 C 167.445312 211.058594 167.261719 210.828125 166.984375 210.597656 C 165.832031 208.246094 165.1875 205.804688 163.898438 204.003906 C 162.558594 202.117188 160.71875 200.59375 158.457031 198.890625 C 156.984375 197.785156 155.09375 197.183594 153.664062 196.03125 C 152.191406 194.878906 150.53125 193.910156 148.871094 192.992188 C 148.734375 192.945312 147.996094 192.4375 147.582031 192.253906 C 147.351562 192.160156 147.121094 192.113281 147.027344 192.113281 C 146.523438 192.113281 146.246094 192.4375 146.152344 192.804688 C 145.785156 194.140625 146.0625 195.386719 146.613281 196.632812 C 147.074219 197.644531 147.675781 198.613281 148.089844 199.535156 C 149.75 203.589844 154.679688 208.199219 158.828125 209.8125 C 160.027344 210.273438 161.410156 210.457031 162.789062 210.6875 C 163.941406 210.917969 165.003906 211.195312 165.832031 211.933594 C 165.925781 212.023438 166.015625 212.070312 166.109375 212.117188 C 166.203125 212.207031 166.292969 212.300781 166.339844 212.394531 C 168.644531 214.972656 171.132812 217.464844 172.976562 220.414062 C 173.851562 221.75 174.683594 223.132812 175.511719 224.515625 C 175.511719 224.5625 175.648438 224.882812 175.695312 225.160156 C 175.832031 225.621094 175.972656 226.171875 176.109375 226.679688 C 177.214844 232.808594 177.261719 238.847656 175.328125 244.46875 C 175.28125 244.65625 175.28125 244.839844 175.328125 245.023438 C 174.359375 247.605469 172.792969 250.183594 171.410156 252.8125 C 169.566406 256.269531 168.046875 259.816406 168.183594 263.367188 C 168.183594 263.828125 168.597656 264.195312 169.058594 264.195312 C 169.058594 264.195312 169.105469 264.195312 169.105469 264.195312 C 169.613281 264.148438 169.980469 263.78125 169.933594 263.273438 C 169.796875 260.046875 171.269531 256.820312 172.929688 253.640625 C 174.726562 250.230469 176.753906 246.867188 177.585938 243.546875 C 179.796875 234.976562 182.609375 226.3125 184.960938 217.601562 C 186.617188 215.757812 188.460938 213.40625 190.398438 211.195312 C 192.65625 209.765625 198.507812 206.125 202.980469 204.234375 C 203.949219 203.820312 204.777344 203.5 205.5625 203.3125 L 205.605469 203.3125 C 205.699219 203.3125 205.792969 203.359375 205.882812 203.359375 C 205.882812 203.359375 205.929688 203.359375 205.929688 203.359375 C 206.113281 203.359375 206.574219 203.222656 206.757812 203.175781 L 206.804688 203.175781 C 206.941406 203.175781 207.082031 203.175781 207.171875 203.222656 C 207.863281 203.359375 208.601562 203.730469 209.339844 204.050781 C 210.261719 204.464844 211.183594 204.835938 212.199219 204.882812 C 212.703125 204.925781 213.210938 204.925781 213.71875 204.925781 L 213.808594 204.925781 C 216.253906 204.925781 218.742188 204.511719 221.507812 203.730469 C 225.148438 202.714844 228.464844 200.410156 231.738281 198.660156 C 232.890625 198.015625 234.457031 197.785156 235.703125 197.460938 C 235.933594 197.414062 236.394531 197.414062 236.761719 197.460938 C 236.855469 197.460938 236.902344 197.460938 236.945312 197.460938 C 237.363281 197.414062 237.683594 197.324219 237.867188 197.183594 C 238.050781 197.046875 238.191406 196.816406 238.238281 196.585938 C 238.28125 196.355469 238.28125 196.078125 238.050781 195.753906 C 237.636719 195.15625 236.945312 194.695312 235.980469 194.328125 C 234.78125 193.910156 233.121094 193.679688 231.230469 193.636719 C 226.253906 193.496094 219.523438 194.511719 215.007812 195.847656 C 212.980469 196.445312 211.367188 197.09375 210.539062 197.738281 C 209.894531 198.246094 209.386719 198.796875 208.925781 199.398438 C 208.417969 200.042969 207.910156 200.777344 207.082031 201.425781 C 206.941406 201.425781 206.804688 201.425781 206.667969 201.425781 C 206.621094 201.425781 206.527344 201.425781 206.4375 201.46875 C 205.332031 201.5625 203.902344 201.976562 202.289062 202.667969 C 200.03125 203.589844 197.449219 204.972656 195.097656 206.308594 L 195.144531 206.261719 C 195.144531 206.261719 195.191406 206.21875 195.191406 206.21875 C 195.835938 205.664062 196.527344 205.066406 197.265625 204.421875 C 197.863281 204.050781 198.464844 203.542969 199.0625 202.992188 C 204.179688 198.890625 210.953125 193.820312 216.160156 188.65625 C 216.300781 188.613281 216.390625 188.519531 216.484375 188.382812 C 216.898438 187.828125 217.726562 187.503906 218.558594 187.183594 C 219.617188 186.769531 220.675781 186.445312 221.414062 186.078125 C 226.070312 183.589844 230.496094 178.933594 232.890625 174.234375 C 234.78125 170.546875 235.792969 166.535156 237.589844 162.847656 C 238.007812 162.019531 239.019531 160.542969 239.019531 160.542969 C 239.25 160.175781 239.203125 159.714844 238.929688 159.4375 C 238.742188 159.253906 238.511719 159.160156 238.28125 159.160156 C 238.097656 159.160156 237.960938 159.207031 237.777344 159.300781 C 237.777344 159.300781 236.347656 160.269531 235.609375 160.773438 C 232.292969 162.988281 229.433594 165.660156 226.390625 168.195312 C 222.9375 171.144531 221.046875 174.1875 219.523438 177.457031 C 218.097656 180.5 216.992188 183.726562 215.101562 187.136719 C 211.046875 191.191406 205.976562 195.25 201.457031 198.796875 L 201.457031 198.75 C 201.6875 198.015625 201.828125 197.183594 201.917969 196.308594 C 202.105469 194.097656 203.53125 192.53125 205.054688 191.054688 C 206.804688 189.347656 208.695312 187.734375 209.523438 185.707031 C 210.539062 183.265625 210.398438 183.542969 210.769531 181.558594 C 211.089844 179.992188 211.414062 178.378906 211.738281 176.765625 C 212.152344 174.738281 212.613281 172.664062 212.980469 170.636719 C 213.027344 170.359375 213.347656 169.898438 213.347656 169.898438 C 213.578125 169.53125 213.535156 169.070312 213.210938 168.746094 C 212.886719 168.472656 212.382812 168.425781 212.058594 168.703125 C 212.058594 168.703125 210.445312 169.992188 209.664062 170.683594 C 206.160156 173.726562 203.257812 177.457031 201.183594 181.558594 C 199.476562 184.878906 199.707031 188.519531 199.890625 192.070312 C 200.03125 194.832031 200.121094 197.554688 198.925781 200.042969 C 198.507812 200.734375 198.046875 201.332031 197.585938 201.792969 C 197.082031 202.207031 196.574219 202.621094 196.066406 203.039062 C 195.835938 203.222656 195.605469 203.359375 195.375 203.5 C 195.191406 203.589844 195.050781 203.773438 194.960938 203.960938 C 194.546875 204.28125 194.175781 204.605469 193.808594 204.925781 C 191.089844 207.371094 188.277344 210.734375 185.742188 213.730469 L 185.789062 213.589844 C 186.15625 212.207031 186.480469 210.78125 186.804688 209.398438 C 186.988281 208.660156 187.125 207.921875 187.265625 207.183594 C 187.492188 206.355469 187.679688 205.433594 187.816406 204.511719 C 189.523438 195.984375 190.8125 187.273438 191.871094 178.519531 C 192.101562 178.378906 192.242188 178.148438 192.289062 177.875 C 192.792969 172.25 196.894531 161.972656 201.917969 152.109375 C 203.671875 149.4375 205.5625 147.917969 208.324219 146.488281 C 210.03125 145.613281 211.828125 144.460938 213.625 143.628906 C 214.546875 143.539062 215.839844 143.445312 216.714844 143.628906 C 219.664062 144.230469 222.058594 144.964844 224.226562 145.335938 C 225.101562 145.472656 225.976562 145.566406 226.851562 145.613281 L 226.898438 145.613281 C 228.234375 145.613281 229.574219 145.382812 230.910156 144.78125 C 232.753906 144 234.6875 142.523438 236.902344 139.988281 C 237.363281 139.480469 238.238281 138.789062 238.972656 138.054688 C 239.574219 137.40625 240.035156 136.71875 240.171875 136.117188 C 240.21875 135.839844 240.171875 135.566406 239.988281 135.335938 C 239.804688 135.058594 239.203125 134.828125 239.066406 134.78125 C 237.546875 134.457031 235.980469 134.226562 234.410156 134.273438 L 234.367188 134.273438 C 233.765625 134.273438 233.167969 134.320312 232.566406 134.367188 C 227.914062 134.917969 223.351562 134.917969 219.019531 137.132812 C 218.097656 137.59375 216.390625 139.207031 214.960938 140.449219 C 214.179688 141.140625 213.488281 141.785156 213.074219 141.925781 C 212.980469 141.972656 212.886719 142.015625 212.796875 142.0625 C 211 142.9375 209.203125 144.042969 207.496094 144.921875 C 206.527344 145.425781 205.699219 145.886719 204.914062 146.441406 L 204.960938 146.347656 C 209.246094 138.699219 213.808594 132.015625 217.359375 129.066406 C 218.003906 128.511719 219.339844 127.777344 220.953125 126.855469 C 221.507812 126.761719 222.058594 126.714844 222.660156 126.667969 C 223.859375 126.625 225.054688 126.667969 226.207031 126.484375 C 229.480469 125.976562 232.84375 124.6875 235.703125 123.027344 C 241.371094 119.757812 243.628906 116.621094 245.839844 112.980469 C 247.222656 110.675781 248.605469 108.140625 250.863281 105.238281 C 251.140625 104.871094 251.09375 104.546875 251.050781 104.457031 C 251.003906 104.226562 250.863281 104.039062 250.632812 103.902344 C 250.496094 103.808594 250.359375 103.765625 250.082031 103.765625 C 249.988281 103.765625 249.851562 103.808594 249.667969 103.902344 C 249.484375 103.996094 249.023438 104.269531 248.46875 104.640625 C 247.824219 105.054688 246.902344 105.332031 246.164062 105.515625 C 243.261719 106.207031 240.355469 107.035156 237.40625 107.820312 C 234.367188 108.648438 231.832031 110.585938 229.617188 112.933594 C 227.5 115.148438 225.65625 117.730469 223.8125 119.894531 C 222.429688 121.507812 220.953125 123.90625 219.25 125.425781 C 219.15625 125.425781 219.109375 125.425781 219.019531 125.472656 C 218.742188 125.5625 218.558594 125.746094 218.464844 125.976562 C 217.3125 126.667969 215.746094 128.050781 214.917969 128.789062 C 214.824219 128.882812 214.730469 129.019531 214.6875 129.160156 C 212.429688 131.460938 209.894531 134.875 207.3125 138.882812 L 207.3125 138.789062 C 208.234375 135.703125 208.972656 132.476562 209.570312 129.34375 C 209.753906 128.511719 209.753906 127.867188 210.585938 125.242188 C 213.535156 123.535156 216.898438 119.894531 218.464844 115.746094 C 219.019531 114.273438 219.15625 112.660156 219.25 111.183594 C 219.339844 109.894531 219.339844 108.648438 219.617188 107.820312 C 220.078125 106.4375 220.125 104.917969 220.769531 103.535156 C 220.953125 103.164062 221.136719 102.613281 221.367188 102.289062 C 221.414062 102.242188 221.554688 102.058594 221.644531 101.921875 C 221.738281 101.78125 221.785156 101.691406 221.785156 101.597656 C 221.875 101.273438 221.738281 101.042969 221.644531 100.859375 C 221.507812 100.722656 221.367188 100.582031 221.09375 100.492188 C 220.722656 100.398438 220.125 100.539062 219.433594 101.042969 C 217.726562 102.242188 214.824219 105.652344 214.226562 106.484375 C 213.164062 108.003906 211.828125 109.15625 210.675781 110.585938 C 208.511719 113.351562 207.773438 115.5625 207.773438 119.109375 C 207.773438 120.402344 208.050781 121.277344 208.324219 122.152344 C 208.554688 122.890625 208.785156 123.628906 208.785156 124.78125 C 208.785156 124.871094 208.785156 124.917969 208.832031 125.011719 C 208.003906 127.546875 208.003906 128.238281 207.820312 129.066406 C 206.851562 133.722656 205.746094 138.605469 203.992188 142.984375 C 203.394531 144.414062 202.886719 145.796875 202.378906 147.226562 C 201.875 148.101562 201.414062 149.023438 200.953125 149.945312 C 200.722656 150.359375 200.445312 150.820312 200.214844 151.328125 C 200.167969 151.371094 200.167969 151.464844 200.121094 151.511719 C 199.984375 151.742188 199.800781 152.019531 199.660156 152.292969 C 199.570312 152.433594 199.523438 152.617188 199.523438 152.753906 C 196.851562 158.101562 194.5 163.492188 192.839844 168.195312 L 192.886719 167.964844 C 194.820312 148.007812 195.929688 127.820312 198.277344 108.140625 C 198.96875 102.519531 199.429688 96.851562 200.03125 91.183594 C 201.089844 88.371094 201.644531 87.082031 203.488281 82.285156 C 203.992188 80.949219 204.914062 79.753906 206.023438 78.875 C 206.480469 78.507812 206.898438 78.09375 207.3125 77.632812 C 213.996094 77.308594 222.105469 75.742188 226.578125 69.382812 C 228.050781 67.261719 231.277344 62.699219 231.738281 61.730469 C 232.015625 61.226562 231.832031 60.808594 231.785156 60.71875 C 231.691406 60.535156 231.554688 60.394531 231.371094 60.347656 C 231.277344 60.304688 231.140625 60.257812 230.910156 60.257812 C 230.769531 60.257812 230.449219 60.347656 230.035156 60.441406 C 228.511719 60.902344 225.054688 62.332031 223.902344 62.605469 C 221.324219 63.160156 219.109375 63.390625 216.945312 64.910156 C 212.84375 67.769531 213.210938 67.90625 210.167969 71.273438 C 208.417969 73.207031 206.898438 75.878906 204.914062 77.539062 C 203.578125 78.644531 202.425781 80.121094 201.828125 81.6875 C 201.457031 82.65625 201.136719 83.53125 200.859375 84.222656 L 200.859375 84.085938 C 201.6875 77.679688 202.839844 71.363281 204.683594 65.1875 C 204.824219 64.679688 205.007812 64.128906 205.144531 63.621094 C 205.144531 63.574219 205.144531 63.574219 205.144531 63.527344 C 206.804688 57.308594 207.449219 50.714844 209.523438 44.585938 C 212.058594 41.40625 215.5625 38.089844 218.464844 36.0625 C 221.738281 33.757812 223.902344 29.792969 226.578125 26.84375 C 227.542969 25.738281 228.375 24.539062 229.433594 23.523438 C 229.617188 23.339844 230.863281 22.328125 231.277344 21.726562 C 231.644531 21.265625 231.601562 20.804688 231.507812 20.574219 C 231.371094 20.296875 231.046875 19.976562 230.585938 19.835938 C 230.171875 19.699219 229.527344 19.699219 229.34375 19.699219 C 229.019531 19.652344 228.742188 19.652344 228.421875 19.652344 L 228.328125 19.652344 C 225.007812 19.699219 223.210938 21.636719 220.492188 23.617188 C 215.285156 27.488281 212.703125 29.46875 211.183594 32.003906 C 209.617188 34.585938 209.0625 37.765625 208.003906 44.078125 C 208.003906 44.21875 208.003906 44.355469 208.003906 44.449219 C 206.667969 48.734375 205.929688 53.207031 205.007812 57.582031 Z M 205.007812 57.539062 " fill-opacity="1" fill-rule="evenodd"/></g><g fill="#385731" fill-opacity="1"><g transform="translate(133.35039, 302.781931)"><g><path d="M 20.109375 -20.484375 L 20.109375 -8.484375 C 20.109375 -5.816406 19.316406 -3.710938 17.734375 -2.171875 C 16.148438 -0.628906 13.972656 0.140625 11.203125 0.140625 C 8.429688 0.140625 6.25 -0.628906 4.65625 -2.171875 C 3.070312 -3.710938 2.28125 -5.816406 2.28125 -8.484375 L 2.28125 -20.484375 L 5.734375 -20.484375 L 5.734375 -8.484375 C 5.734375 -6.765625 6.222656 -5.410156 7.203125 -4.421875 C 8.191406 -3.441406 9.535156 -2.953125 11.234375 -2.953125 C 12.910156 -2.953125 14.234375 -3.4375 15.203125 -4.40625 C 16.171875 -5.382812 16.65625 -6.742188 16.65625 -8.484375 L 16.65625 -20.484375 Z M 20.109375 -20.484375 "/></g></g></g><g fill="#385731" fill-opacity="1"><g transform="translate(161.55951, 302.781931)"><g><path d="M 11.59375 -15.6875 C 13.40625 -15.6875 14.820312 -15.15625 15.84375 -14.09375 C 16.875 -13.03125 17.390625 -11.5625 17.390625 -9.6875 L 17.390625 0 L 14.015625 0 L 14.015625 -8.75 C 14.015625 -9.914062 13.679688 -10.835938 13.015625 -11.515625 C 12.359375 -12.191406 11.441406 -12.53125 10.265625 -12.53125 C 9.023438 -12.507812 8.007812 -12.109375 7.21875 -11.328125 C 6.425781 -10.546875 5.972656 -9.53125 5.859375 -8.28125 L 5.859375 0 L 2.484375 0 L 2.484375 -15.5625 L 5.859375 -15.5625 L 5.859375 -12.578125 C 6.910156 -14.648438 8.820312 -15.6875 11.59375 -15.6875 Z M 11.59375 -15.6875 "/></g></g></g><g fill="#385731" fill-opacity="1"><g transform="translate(186.81329, 302.781931)"><g><path d="M 2.75 -21.484375 C 3.125 -21.867188 3.59375 -22.0625 4.15625 -22.0625 C 4.71875 -22.0625 5.179688 -21.867188 5.546875 -21.484375 C 5.921875 -21.109375 6.109375 -20.617188 6.109375 -20.015625 C 6.109375 -19.429688 5.921875 -18.945312 5.546875 -18.5625 C 5.179688 -18.1875 4.71875 -18 4.15625 -18 C 3.59375 -18 3.125 -18.1875 2.75 -18.5625 C 2.375 -18.945312 2.1875 -19.429688 2.1875 -20.015625 C 2.1875 -20.617188 2.375 -21.109375 2.75 -21.484375 Z M 5.828125 0 L 2.484375 0 L 2.484375 -15.5625 L 5.828125 -15.5625 Z M 5.828125 0 "/></g></g></g><g fill="#385731" fill-opacity="1"><g transform="translate(200.977259, 302.781931)"><g><path d="M 8.875 -15.6875 C 11.675781 -15.6875 13.820312 -14.835938 15.3125 -13.140625 L 13.46875 -10.96875 C 12.289062 -12.164062 10.804688 -12.753906 9.015625 -12.734375 C 7.671875 -12.734375 6.5625 -12.269531 5.6875 -11.34375 C 4.820312 -10.414062 4.390625 -9.21875 4.390625 -7.75 C 4.390625 -6.289062 4.820312 -5.097656 5.6875 -4.171875 C 6.5625 -3.242188 7.671875 -2.78125 9.015625 -2.78125 C 11.003906 -2.78125 12.535156 -3.40625 13.609375 -4.65625 L 15.484375 -2.78125 C 14.015625 -0.851562 11.8125 0.109375 8.875 0.109375 C 6.550781 0.109375 4.660156 -0.613281 3.203125 -2.0625 C 1.753906 -3.519531 1.03125 -5.414062 1.03125 -7.75 C 1.03125 -10.113281 1.753906 -12.023438 3.203125 -13.484375 C 4.660156 -14.953125 6.550781 -15.6875 8.875 -15.6875 Z M 8.875 -15.6875 "/></g></g></g><g fill="#385731" fill-opacity="1"><g transform="translate(223.334231, 302.781931)"><g><path d="M 9.15625 -15.6875 C 11.5625 -15.6875 13.515625 -14.957031 15.015625 -13.5 C 16.515625 -12.050781 17.265625 -10.144531 17.265625 -7.78125 C 17.265625 -5.4375 16.515625 -3.535156 15.015625 -2.078125 C 13.515625 -0.617188 11.5625 0.109375 9.15625 0.109375 C 6.738281 0.109375 4.78125 -0.617188 3.28125 -2.078125 C 1.78125 -3.535156 1.03125 -5.4375 1.03125 -7.78125 C 1.03125 -10.144531 1.78125 -12.050781 3.28125 -13.5 C 4.78125 -14.957031 6.738281 -15.6875 9.15625 -15.6875 Z M 9.15625 -12.796875 C 7.75 -12.796875 6.601562 -12.328125 5.71875 -11.390625 C 4.832031 -10.453125 4.390625 -9.238281 4.390625 -7.75 C 4.390625 -6.25 4.832031 -5.03125 5.71875 -4.09375 C 6.601562 -3.15625 7.75 -2.6875 9.15625 -2.6875 C 10.5625 -2.6875 11.703125 -3.15625 12.578125 -4.09375 C 13.460938 -5.03125 13.90625 -6.25 13.90625 -7.75 C 13.90625 -9.238281 13.457031 -10.453125 12.5625 -11.390625 C 11.675781 -12.328125 10.539062 -12.796875 9.15625 -12.796875 Z M 9.15625 -12.796875 "/></g></g></g><g fill="#385731" fill-opacity="1"><g transform="translate(83.901407, 326.185527)"><g><path d="M 6.375 -4.359375 L 6.375 0 L 5.0625 0 L 5.0625 -4.359375 L 0.015625 -12.59375 L 1.4375 -12.59375 L 5.765625 -5.53125 L 10.078125 -12.59375 L 11.40625 -12.59375 Z M 6.375 -4.359375 "/></g></g></g><g fill="#385731" fill-opacity="1"><g transform="translate(101.977804, 326.185527)"><g><path d="M 5.65625 0.09375 C 4.738281 0.09375 3.914062 -0.113281 3.1875 -0.53125 C 2.457031 -0.945312 1.878906 -1.519531 1.453125 -2.25 C 1.035156 -2.976562 0.828125 -3.804688 0.828125 -4.734375 C 0.828125 -5.660156 1.035156 -6.488281 1.453125 -7.21875 C 1.878906 -7.945312 2.457031 -8.515625 3.1875 -8.921875 C 3.914062 -9.335938 4.738281 -9.546875 5.65625 -9.546875 C 6.5625 -9.546875 7.378906 -9.335938 8.109375 -8.921875 C 8.847656 -8.515625 9.421875 -7.945312 9.828125 -7.21875 C 10.242188 -6.488281 10.453125 -5.660156 10.453125 -4.734375 C 10.453125 -3.804688 10.242188 -2.976562 9.828125 -2.25 C 9.421875 -1.519531 8.847656 -0.945312 8.109375 -0.53125 C 7.378906 -0.113281 6.5625 0.09375 5.65625 0.09375 Z M 5.65625 -1.046875 C 6.320312 -1.046875 6.921875 -1.195312 7.453125 -1.5 C 7.992188 -1.8125 8.410156 -2.25 8.703125 -2.8125 C 9.003906 -3.375 9.15625 -4.015625 9.15625 -4.734375 C 9.15625 -5.453125 9.003906 -6.09375 8.703125 -6.65625 C 8.410156 -7.21875 7.992188 -7.648438 7.453125 -7.953125 C 6.921875 -8.265625 6.320312 -8.421875 5.65625 -8.421875 C 4.976562 -8.421875 4.375 -8.265625 3.84375 -7.953125 C 3.3125 -7.648438 2.890625 -7.21875 2.578125 -6.65625 C 2.273438 -6.09375 2.125 -5.453125 2.125 -4.734375 C 2.125 -4.015625 2.273438 -3.375 2.578125 -2.8125 C 2.890625 -2.25 3.3125 -1.8125 3.84375 -1.5 C 4.375 -1.195312 4.976562 -1.046875 5.65625 -1.046875 Z M 5.65625 -1.046875 "/></g></g></g><g fill="#385731" fill-opacity="1"><g transform="translate(119.9102, 326.185527)"><g><path d="M 10.3125 -9.46875 L 10.3125 0 L 9.09375 0 L 9.09375 -1.734375 C 8.757812 -1.148438 8.296875 -0.695312 7.703125 -0.375 C 7.117188 -0.0625 6.445312 0.09375 5.6875 0.09375 C 4.445312 0.09375 3.46875 -0.25 2.75 -0.9375 C 2.039062 -1.632812 1.6875 -2.648438 1.6875 -3.984375 L 1.6875 -9.46875 L 2.96875 -9.46875 L 2.96875 -4.109375 C 2.96875 -3.109375 3.210938 -2.347656 3.703125 -1.828125 C 4.203125 -1.316406 4.90625 -1.0625 5.8125 -1.0625 C 6.8125 -1.0625 7.597656 -1.363281 8.171875 -1.96875 C 8.742188 -2.570312 9.03125 -3.414062 9.03125 -4.5 L 9.03125 -9.46875 Z M 10.3125 -9.46875 "/></g></g></g><g fill="#385731" fill-opacity="1"><g transform="translate(138.670584, 326.185527)"><g><path d="M 3 -7.609375 C 3.300781 -8.242188 3.75 -8.722656 4.34375 -9.046875 C 4.9375 -9.378906 5.671875 -9.546875 6.546875 -9.546875 L 6.546875 -8.296875 L 6.25 -8.3125 C 5.25 -8.3125 4.46875 -8.003906 3.90625 -7.390625 C 3.34375 -6.785156 3.0625 -5.929688 3.0625 -4.828125 L 3.0625 0 L 1.78125 0 L 1.78125 -9.46875 L 3 -9.46875 Z M 3 -7.609375 "/></g></g></g><g fill="#385731" fill-opacity="1"><g transform="translate(152.534998, 326.185527)"><g/></g></g><g fill="#385731" fill-opacity="1"><g transform="translate(163.897412, 326.185527)"><g><path d="M 2.046875 -12.59375 L 3.390625 -12.59375 L 3.390625 -1.15625 L 10.4375 -1.15625 L 10.4375 0 L 2.046875 0 Z M 2.046875 -12.59375 "/></g></g></g><g fill="#385731" fill-opacity="1"><g transform="translate(181.145809, 326.185527)"><g><path d="M 1.78125 -9.46875 L 3.0625 -9.46875 L 3.0625 0 L 1.78125 0 Z M 2.421875 -11.53125 C 2.160156 -11.53125 1.9375 -11.617188 1.75 -11.796875 C 1.570312 -11.984375 1.484375 -12.203125 1.484375 -12.453125 C 1.484375 -12.691406 1.570312 -12.898438 1.75 -13.078125 C 1.9375 -13.265625 2.160156 -13.359375 2.421875 -13.359375 C 2.691406 -13.359375 2.914062 -13.269531 3.09375 -13.09375 C 3.269531 -12.914062 3.359375 -12.707031 3.359375 -12.46875 C 3.359375 -12.207031 3.269531 -11.984375 3.09375 -11.796875 C 2.914062 -11.617188 2.691406 -11.53125 2.421875 -11.53125 Z M 2.421875 -11.53125 "/></g></g></g><g fill="#385731" fill-opacity="1"><g transform="translate(192.634223, 326.185527)"><g><path d="M 4.90625 -12.359375 C 4.363281 -12.359375 3.945312 -12.207031 3.65625 -11.90625 C 3.375 -11.613281 3.234375 -11.171875 3.234375 -10.578125 L 3.234375 -9.46875 L 6.15625 -9.46875 L 6.15625 -8.390625 L 3.28125 -8.390625 L 3.28125 0 L 2 0 L 2 -8.390625 L 0.3125 -8.390625 L 0.3125 -9.46875 L 2 -9.46875 L 2 -10.640625 C 2 -11.503906 2.242188 -12.1875 2.734375 -12.6875 C 3.234375 -13.195312 3.941406 -13.453125 4.859375 -13.453125 C 5.222656 -13.453125 5.570312 -13.398438 5.90625 -13.296875 C 6.238281 -13.191406 6.519531 -13.046875 6.75 -12.859375 L 6.3125 -11.890625 C 5.945312 -12.203125 5.476562 -12.359375 4.90625 -12.359375 Z M 4.90625 -12.359375 "/></g></g></g><g fill="#385731" fill-opacity="1"><g transform="translate(205.382632, 326.185527)"><g><path d="M 10.03125 -4.34375 L 2.109375 -4.34375 C 2.179688 -3.351562 2.554688 -2.554688 3.234375 -1.953125 C 3.921875 -1.347656 4.785156 -1.046875 5.828125 -1.046875 C 6.421875 -1.046875 6.960938 -1.148438 7.453125 -1.359375 C 7.941406 -1.566406 8.367188 -1.875 8.734375 -2.28125 L 9.453125 -1.453125 C 9.023438 -0.953125 8.5 -0.566406 7.875 -0.296875 C 7.25 -0.0351562 6.554688 0.09375 5.796875 0.09375 C 4.828125 0.09375 3.96875 -0.113281 3.21875 -0.53125 C 2.46875 -0.945312 1.878906 -1.519531 1.453125 -2.25 C 1.035156 -2.976562 0.828125 -3.804688 0.828125 -4.734375 C 0.828125 -5.660156 1.023438 -6.488281 1.421875 -7.21875 C 1.828125 -7.945312 2.378906 -8.515625 3.078125 -8.921875 C 3.785156 -9.335938 4.578125 -9.546875 5.453125 -9.546875 C 6.328125 -9.546875 7.113281 -9.335938 7.8125 -8.921875 C 8.507812 -8.515625 9.054688 -7.945312 9.453125 -7.21875 C 9.847656 -6.5 10.046875 -5.671875 10.046875 -4.734375 Z M 5.453125 -8.4375 C 4.546875 -8.4375 3.78125 -8.144531 3.15625 -7.5625 C 2.539062 -6.988281 2.191406 -6.234375 2.109375 -5.296875 L 8.8125 -5.296875 C 8.726562 -6.234375 8.378906 -6.988281 7.765625 -7.5625 C 7.148438 -8.144531 6.378906 -8.4375 5.453125 -8.4375 Z M 5.453125 -8.4375 "/></g></g></g><g fill="#385731" fill-opacity="1"><g transform="translate(222.901028, 326.185527)"><g><path d="M 4.3125 0.09375 C 3.550781 0.09375 2.816406 -0.015625 2.109375 -0.234375 C 1.410156 -0.460938 0.863281 -0.742188 0.46875 -1.078125 L 1.046875 -2.09375 C 1.441406 -1.78125 1.9375 -1.523438 2.53125 -1.328125 C 3.132812 -1.128906 3.757812 -1.03125 4.40625 -1.03125 C 5.269531 -1.03125 5.910156 -1.164062 6.328125 -1.4375 C 6.742188 -1.707031 6.953125 -2.085938 6.953125 -2.578125 C 6.953125 -2.921875 6.835938 -3.191406 6.609375 -3.390625 C 6.378906 -3.585938 6.085938 -3.738281 5.734375 -3.84375 C 5.390625 -3.945312 4.929688 -4.046875 4.359375 -4.140625 C 3.585938 -4.285156 2.96875 -4.429688 2.5 -4.578125 C 2.03125 -4.734375 1.628906 -4.988281 1.296875 -5.34375 C 0.972656 -5.707031 0.8125 -6.207031 0.8125 -6.84375 C 0.8125 -7.632812 1.140625 -8.28125 1.796875 -8.78125 C 2.460938 -9.289062 3.378906 -9.546875 4.546875 -9.546875 C 5.160156 -9.546875 5.773438 -9.460938 6.390625 -9.296875 C 7.003906 -9.128906 7.507812 -8.914062 7.90625 -8.65625 L 7.34375 -7.625 C 6.5625 -8.164062 5.628906 -8.4375 4.546875 -8.4375 C 3.734375 -8.4375 3.117188 -8.289062 2.703125 -8 C 2.296875 -7.71875 2.09375 -7.34375 2.09375 -6.875 C 2.09375 -6.519531 2.207031 -6.234375 2.4375 -6.015625 C 2.675781 -5.796875 2.96875 -5.632812 3.3125 -5.53125 C 3.65625 -5.425781 4.132812 -5.320312 4.75 -5.21875 C 5.507812 -5.070312 6.113281 -4.925781 6.5625 -4.78125 C 7.019531 -4.644531 7.410156 -4.398438 7.734375 -4.046875 C 8.054688 -3.703125 8.21875 -3.222656 8.21875 -2.609375 C 8.21875 -1.785156 7.875 -1.128906 7.1875 -0.640625 C 6.5 -0.148438 5.539062 0.09375 4.3125 0.09375 Z M 4.3125 0.09375 "/></g></g></g><g fill="#385731" fill-opacity="1"><g transform="translate(238.34943, 326.185527)"><g><path d="M 6.765625 -0.578125 C 6.523438 -0.359375 6.226562 -0.191406 5.875 -0.078125 C 5.519531 0.0351562 5.148438 0.09375 4.765625 0.09375 C 3.878906 0.09375 3.195312 -0.144531 2.71875 -0.625 C 2.238281 -1.101562 2 -1.78125 2 -2.65625 L 2 -8.390625 L 0.3125 -8.390625 L 0.3125 -9.46875 L 2 -9.46875 L 2 -11.53125 L 3.28125 -11.53125 L 3.28125 -9.46875 L 6.15625 -9.46875 L 6.15625 -8.390625 L 3.28125 -8.390625 L 3.28125 -2.734375 C 3.28125 -2.171875 3.421875 -1.742188 3.703125 -1.453125 C 3.984375 -1.160156 4.382812 -1.015625 4.90625 -1.015625 C 5.175781 -1.015625 5.429688 -1.054688 5.671875 -1.140625 C 5.921875 -1.222656 6.132812 -1.34375 6.3125 -1.5 Z M 6.765625 -0.578125 "/></g></g></g><g fill="#385731" fill-opacity="1"><g transform="translate(252.30384, 326.185527)"><g><path d="M 9.734375 -9.46875 L 5 1.140625 C 4.613281 2.023438 4.171875 2.648438 3.671875 3.015625 C 3.171875 3.390625 2.566406 3.578125 1.859375 3.578125 C 1.398438 3.578125 0.972656 3.503906 0.578125 3.359375 C 0.179688 3.222656 -0.160156 3.007812 -0.453125 2.71875 L 0.140625 1.765625 C 0.617188 2.242188 1.195312 2.484375 1.875 2.484375 C 2.300781 2.484375 2.664062 2.363281 2.96875 2.125 C 3.28125 1.882812 3.566406 1.476562 3.828125 0.90625 L 4.25 -0.015625 L 0.015625 -9.46875 L 1.34375 -9.46875 L 4.90625 -1.421875 L 8.484375 -9.46875 Z M 9.734375 -9.46875 "/></g></g></g><g fill="#385731" fill-opacity="1"><g transform="translate(268.706243, 326.185527)"><g><path d="M 1.78125 -13.359375 L 3.0625 -13.359375 L 3.0625 0 L 1.78125 0 Z M 1.78125 -13.359375 "/></g></g></g><g fill="#385731" fill-opacity="1"><g transform="translate(280.194646, 326.185527)"><g><path d="M 10.03125 -4.34375 L 2.109375 -4.34375 C 2.179688 -3.351562 2.554688 -2.554688 3.234375 -1.953125 C 3.921875 -1.347656 4.785156 -1.046875 5.828125 -1.046875 C 6.421875 -1.046875 6.960938 -1.148438 7.453125 -1.359375 C 7.941406 -1.566406 8.367188 -1.875 8.734375 -2.28125 L 9.453125 -1.453125 C 9.023438 -0.953125 8.5 -0.566406 7.875 -0.296875 C 7.25 -0.0351562 6.554688 0.09375 5.796875 0.09375 C 4.828125 0.09375 3.96875 -0.113281 3.21875 -0.53125 C 2.46875 -0.945312 1.878906 -1.519531 1.453125 -2.25 C 1.035156 -2.976562 0.828125 -3.804688 0.828125 -4.734375 C 0.828125 -5.660156 1.023438 -6.488281 1.421875 -7.21875 C 1.828125 -7.945312 2.378906 -8.515625 3.078125 -8.921875 C 3.785156 -9.335938 4.578125 -9.546875 5.453125 -9.546875 C 6.328125 -9.546875 7.113281 -9.335938 7.8125 -8.921875 C 8.507812 -8.515625 9.054688 -7.945312 9.453125 -7.21875 C 9.847656 -6.5 10.046875 -5.671875 10.046875 -4.734375 Z M 5.453125 -8.4375 C 4.546875 -8.4375 3.78125 -8.144531 3.15625 -7.5625 C 2.539062 -6.988281 2.191406 -6.234375 2.109375 -5.296875 L 8.8125 -5.296875 C 8.726562 -6.234375 8.378906 -6.988281 7.765625 -7.5625 C 7.148438 -8.144531 6.378906 -8.4375 5.453125 -8.4375 Z M 5.453125 -8.4375 "/></g></g></g><g fill="#385731" fill-opacity="1"><g transform="translate(70.038127, 350.935525)"><g><path d="M 7.125 0.109375 C 5.5 0.109375 4.226562 -0.359375 3.3125 -1.296875 C 2.394531 -2.234375 1.9375 -3.59375 1.9375 -5.375 L 1.9375 -12.59375 L 3.28125 -12.59375 L 3.28125 -5.4375 C 3.28125 -3.96875 3.609375 -2.875 4.265625 -2.15625 C 4.921875 -1.4375 5.875 -1.078125 7.125 -1.078125 C 8.382812 -1.078125 9.34375 -1.4375 10 -2.15625 C 10.664062 -2.875 11 -3.96875 11 -5.4375 L 11 -12.59375 L 12.296875 -12.59375 L 12.296875 -5.375 C 12.296875 -3.59375 11.84375 -2.234375 10.9375 -1.296875 C 10.03125 -0.359375 8.757812 0.109375 7.125 0.109375 Z M 7.125 0.109375 "/></g></g></g><g fill="#385731" fill-opacity="1"><g transform="translate(90.940516, 350.935525)"><g><path d="M 6.609375 -9.546875 C 7.796875 -9.546875 8.738281 -9.195312 9.4375 -8.5 C 10.144531 -7.8125 10.5 -6.804688 10.5 -5.484375 L 10.5 0 L 9.21875 0 L 9.21875 -5.359375 C 9.21875 -6.347656 8.96875 -7.097656 8.46875 -7.609375 C 7.976562 -8.128906 7.28125 -8.390625 6.375 -8.390625 C 5.351562 -8.390625 4.546875 -8.082031 3.953125 -7.46875 C 3.359375 -6.863281 3.0625 -6.03125 3.0625 -4.96875 L 3.0625 0 L 1.78125 0 L 1.78125 -9.46875 L 3 -9.46875 L 3 -7.71875 C 3.351562 -8.300781 3.835938 -8.75 4.453125 -9.0625 C 5.066406 -9.382812 5.785156 -9.546875 6.609375 -9.546875 Z M 6.609375 -9.546875 "/></g></g></g><g fill="#385731" fill-opacity="1"><g transform="translate(109.772909, 350.935525)"><g><path d="M 1.78125 -9.46875 L 3.0625 -9.46875 L 3.0625 0 L 1.78125 0 Z M 2.421875 -11.53125 C 2.160156 -11.53125 1.9375 -11.617188 1.75 -11.796875 C 1.570312 -11.984375 1.484375 -12.203125 1.484375 -12.453125 C 1.484375 -12.691406 1.570312 -12.898438 1.75 -13.078125 C 1.9375 -13.265625 2.160156 -13.359375 2.421875 -13.359375 C 2.691406 -13.359375 2.914062 -13.269531 3.09375 -13.09375 C 3.269531 -12.914062 3.359375 -12.707031 3.359375 -12.46875 C 3.359375 -12.207031 3.269531 -11.984375 3.09375 -11.796875 C 2.914062 -11.617188 2.691406 -11.53125 2.421875 -11.53125 Z M 2.421875 -11.53125 "/></g></g></g><g fill="#385731" fill-opacity="1"><g transform="translate(121.261317, 350.935525)"><g><path d="M 10.421875 -9.46875 L 10.421875 3.484375 L 9.140625 3.484375 L 9.140625 -1.78125 C 8.742188 -1.164062 8.238281 -0.695312 7.625 -0.375 C 7.007812 -0.0625 6.316406 0.09375 5.546875 0.09375 C 4.640625 0.09375 3.828125 -0.101562 3.109375 -0.5 C 2.398438 -0.90625 1.84375 -1.472656 1.4375 -2.203125 C 1.03125 -2.941406 0.828125 -3.785156 0.828125 -4.734375 C 0.828125 -5.671875 1.03125 -6.503906 1.4375 -7.234375 C 1.84375 -7.960938 2.40625 -8.53125 3.125 -8.9375 C 3.851562 -9.34375 4.660156 -9.546875 5.546875 -9.546875 C 6.335938 -9.546875 7.046875 -9.375 7.671875 -9.03125 C 8.304688 -8.695312 8.816406 -8.21875 9.203125 -7.59375 L 9.203125 -9.46875 Z M 5.65625 -1.046875 C 6.3125 -1.046875 6.90625 -1.195312 7.4375 -1.5 C 7.976562 -1.8125 8.398438 -2.25 8.703125 -2.8125 C 9.003906 -3.375 9.15625 -4.015625 9.15625 -4.734375 C 9.15625 -5.453125 9.003906 -6.085938 8.703125 -6.640625 C 8.398438 -7.203125 7.976562 -7.640625 7.4375 -7.953125 C 6.90625 -8.265625 6.3125 -8.421875 5.65625 -8.421875 C 4.976562 -8.421875 4.375 -8.265625 3.84375 -7.953125 C 3.3125 -7.640625 2.890625 -7.203125 2.578125 -6.640625 C 2.273438 -6.085938 2.125 -5.453125 2.125 -4.734375 C 2.125 -4.015625 2.273438 -3.375 2.578125 -2.8125 C 2.890625 -2.25 3.3125 -1.8125 3.84375 -1.5 C 4.375 -1.195312 4.976562 -1.046875 5.65625 -1.046875 Z M 5.65625 -1.046875 "/></g></g></g><g fill="#385731" fill-opacity="1"><g transform="translate(140.111715, 350.935525)"><g><path d="M 10.3125 -9.46875 L 10.3125 0 L 9.09375 0 L 9.09375 -1.734375 C 8.757812 -1.148438 8.296875 -0.695312 7.703125 -0.375 C 7.117188 -0.0625 6.445312 0.09375 5.6875 0.09375 C 4.445312 0.09375 3.46875 -0.25 2.75 -0.9375 C 2.039062 -1.632812 1.6875 -2.648438 1.6875 -3.984375 L 1.6875 -9.46875 L 2.96875 -9.46875 L 2.96875 -4.109375 C 2.96875 -3.109375 3.210938 -2.347656 3.703125 -1.828125 C 4.203125 -1.316406 4.90625 -1.0625 5.8125 -1.0625 C 6.8125 -1.0625 7.597656 -1.363281 8.171875 -1.96875 C 8.742188 -2.570312 9.03125 -3.414062 9.03125 -4.5 L 9.03125 -9.46875 Z M 10.3125 -9.46875 "/></g></g></g><g fill="#385731" fill-opacity="1"><g transform="translate(158.872105, 350.935525)"><g><path d="M 10.03125 -4.34375 L 2.109375 -4.34375 C 2.179688 -3.351562 2.554688 -2.554688 3.234375 -1.953125 C 3.921875 -1.347656 4.785156 -1.046875 5.828125 -1.046875 C 6.421875 -1.046875 6.960938 -1.148438 7.453125 -1.359375 C 7.941406 -1.566406 8.367188 -1.875 8.734375 -2.28125 L 9.453125 -1.453125 C 9.023438 -0.953125 8.5 -0.566406 7.875 -0.296875 C 7.25 -0.0351562 6.554688 0.09375 5.796875 0.09375 C 4.828125 0.09375 3.96875 -0.113281 3.21875 -0.53125 C 2.46875 -0.945312 1.878906 -1.519531 1.453125 -2.25 C 1.035156 -2.976562 0.828125 -3.804688 0.828125 -4.734375 C 0.828125 -5.660156 1.023438 -6.488281 1.421875 -7.21875 C 1.828125 -7.945312 2.378906 -8.515625 3.078125 -8.921875 C 3.785156 -9.335938 4.578125 -9.546875 5.453125 -9.546875 C 6.328125 -9.546875 7.113281 -9.335938 7.8125 -8.921875 C 8.507812 -8.515625 9.054688 -7.945312 9.453125 -7.21875 C 9.847656 -6.5 10.046875 -5.671875 10.046875 -4.734375 Z M 5.453125 -8.4375 C 4.546875 -8.4375 3.78125 -8.144531 3.15625 -7.5625 C 2.539062 -6.988281 2.191406 -6.234375 2.109375 -5.296875 L 8.8125 -5.296875 C 8.726562 -6.234375 8.378906 -6.988281 7.765625 -7.5625 C 7.148438 -8.144531 6.378906 -8.4375 5.453125 -8.4375 Z M 5.453125 -8.4375 "/></g></g></g><g fill="#385731" fill-opacity="1"><g transform="translate(176.390502, 350.935525)"><g><path d="M 1.78125 -13.359375 L 3.0625 -13.359375 L 3.0625 0 L 1.78125 0 Z M 1.78125 -13.359375 "/></g></g></g><g fill="#385731" fill-opacity="1"><g transform="translate(187.878916, 350.935525)"><g><path d="M 9.734375 -9.46875 L 5 1.140625 C 4.613281 2.023438 4.171875 2.648438 3.671875 3.015625 C 3.171875 3.390625 2.566406 3.578125 1.859375 3.578125 C 1.398438 3.578125 0.972656 3.503906 0.578125 3.359375 C 0.179688 3.222656 -0.160156 3.007812 -0.453125 2.71875 L 0.140625 1.765625 C 0.617188 2.242188 1.195312 2.484375 1.875 2.484375 C 2.300781 2.484375 2.664062 2.363281 2.96875 2.125 C 3.28125 1.882812 3.566406 1.476562 3.828125 0.90625 L 4.25 -0.015625 L 0.015625 -9.46875 L 1.34375 -9.46875 L 4.90625 -1.421875 L 8.484375 -9.46875 Z M 9.734375 -9.46875 "/></g></g></g><g fill="#385731" fill-opacity="1"><g transform="translate(204.281319, 350.935525)"><g/></g></g><g fill="#385731" fill-opacity="1"><g transform="translate(215.643734, 350.935525)"><g><path d="M 5.53125 0.109375 C 4.59375 0.109375 3.691406 -0.0390625 2.828125 -0.34375 C 1.972656 -0.644531 1.3125 -1.039062 0.84375 -1.53125 L 1.375 -2.5625 C 1.820312 -2.101562 2.421875 -1.734375 3.171875 -1.453125 C 3.929688 -1.171875 4.71875 -1.03125 5.53125 -1.03125 C 6.65625 -1.03125 7.5 -1.234375 8.0625 -1.640625 C 8.625 -2.054688 8.90625 -2.597656 8.90625 -3.265625 C 8.90625 -3.765625 8.75 -4.160156 8.4375 -4.453125 C 8.132812 -4.753906 7.757812 -4.988281 7.3125 -5.15625 C 6.875 -5.320312 6.257812 -5.5 5.46875 -5.6875 C 4.519531 -5.925781 3.765625 -6.15625 3.203125 -6.375 C 2.640625 -6.601562 2.15625 -6.941406 1.75 -7.390625 C 1.351562 -7.847656 1.15625 -8.46875 1.15625 -9.25 C 1.15625 -9.882812 1.320312 -10.460938 1.65625 -10.984375 C 1.988281 -11.503906 2.503906 -11.921875 3.203125 -12.234375 C 3.898438 -12.546875 4.765625 -12.703125 5.796875 -12.703125 C 6.515625 -12.703125 7.21875 -12.601562 7.90625 -12.40625 C 8.601562 -12.207031 9.203125 -11.9375 9.703125 -11.59375 L 9.25 -10.53125 C 8.71875 -10.875 8.148438 -11.132812 7.546875 -11.3125 C 6.953125 -11.488281 6.367188 -11.578125 5.796875 -11.578125 C 4.691406 -11.578125 3.859375 -11.363281 3.296875 -10.9375 C 2.742188 -10.507812 2.46875 -9.957031 2.46875 -9.28125 C 2.46875 -8.78125 2.617188 -8.375 2.921875 -8.0625 C 3.234375 -7.757812 3.617188 -7.523438 4.078125 -7.359375 C 4.535156 -7.203125 5.15625 -7.03125 5.9375 -6.84375 C 6.863281 -6.613281 7.609375 -6.382812 8.171875 -6.15625 C 8.742188 -5.9375 9.226562 -5.601562 9.625 -5.15625 C 10.019531 -4.707031 10.21875 -4.097656 10.21875 -3.328125 C 10.21875 -2.691406 10.046875 -2.113281 9.703125 -1.59375 C 9.367188 -1.070312 8.847656 -0.65625 8.140625 -0.34375 C 7.429688 -0.0390625 6.5625 0.109375 5.53125 0.109375 Z M 5.53125 0.109375 "/></g></g></g><g fill="#385731" fill-opacity="1"><g transform="translate(233.360137, 350.935525)"><g><path d="M 6.765625 -0.578125 C 6.523438 -0.359375 6.226562 -0.191406 5.875 -0.078125 C 5.519531 0.0351562 5.148438 0.09375 4.765625 0.09375 C 3.878906 0.09375 3.195312 -0.144531 2.71875 -0.625 C 2.238281 -1.101562 2 -1.78125 2 -2.65625 L 2 -8.390625 L 0.3125 -8.390625 L 0.3125 -9.46875 L 2 -9.46875 L 2 -11.53125 L 3.28125 -11.53125 L 3.28125 -9.46875 L 6.15625 -9.46875 L 6.15625 -8.390625 L 3.28125 -8.390625 L 3.28125 -2.734375 C 3.28125 -2.171875 3.421875 -1.742188 3.703125 -1.453125 C 3.984375 -1.160156 4.382812 -1.015625 4.90625 -1.015625 C 5.175781 -1.015625 5.429688 -1.054688 5.671875 -1.140625 C 5.921875 -1.222656 6.132812 -1.34375 6.3125 -1.5 Z M 6.765625 -0.578125 "/></g></g></g><g fill="#385731" fill-opacity="1"><g transform="translate(247.314547, 350.935525)"><g><path d="M 9.734375 -9.46875 L 5 1.140625 C 4.613281 2.023438 4.171875 2.648438 3.671875 3.015625 C 3.171875 3.390625 2.566406 3.578125 1.859375 3.578125 C 1.398438 3.578125 0.972656 3.503906 0.578125 3.359375 C 0.179688 3.222656 -0.160156 3.007812 -0.453125 2.71875 L 0.140625 1.765625 C 0.617188 2.242188 1.195312 2.484375 1.875 2.484375 C 2.300781 2.484375 2.664062 2.363281 2.96875 2.125 C 3.28125 1.882812 3.566406 1.476562 3.828125 0.90625 L 4.25 -0.015625 L 0.015625 -9.46875 L 1.34375 -9.46875 L 4.90625 -1.421875 L 8.484375 -9.46875 Z M 9.734375 -9.46875 "/></g></g></g><g fill="#385731" fill-opacity="1"><g transform="translate(263.716939, 350.935525)"><g><path d="M 1.78125 -13.359375 L 3.0625 -13.359375 L 3.0625 0 L 1.78125 0 Z M 1.78125 -13.359375 "/></g></g></g><g fill="#385731" fill-opacity="1"><g transform="translate(275.205342, 350.935525)"><g><path d="M 10.03125 -4.34375 L 2.109375 -4.34375 C 2.179688 -3.351562 2.554688 -2.554688 3.234375 -1.953125 C 3.921875 -1.347656 4.785156 -1.046875 5.828125 -1.046875 C 6.421875 -1.046875 6.960938 -1.148438 7.453125 -1.359375 C 7.941406 -1.566406 8.367188 -1.875 8.734375 -2.28125 L 9.453125 -1.453125 C 9.023438 -0.953125 8.5 -0.566406 7.875 -0.296875 C 7.25 -0.0351562 6.554688 0.09375 5.796875 0.09375 C 4.828125 0.09375 3.96875 -0.113281 3.21875 -0.53125 C 2.46875 -0.945312 1.878906 -1.519531 1.453125 -2.25 C 1.035156 -2.976562 0.828125 -3.804688 0.828125 -4.734375 C 0.828125 -5.660156 1.023438 -6.488281 1.421875 -7.21875 C 1.828125 -7.945312 2.378906 -8.515625 3.078125 -8.921875 C 3.785156 -9.335938 4.578125 -9.546875 5.453125 -9.546875 C 6.328125 -9.546875 7.113281 -9.335938 7.8125 -8.921875 C 8.507812 -8.515625 9.054688 -7.945312 9.453125 -7.21875 C 9.847656 -6.5 10.046875 -5.671875 10.046875 -4.734375 Z M 5.453125 -8.4375 C 4.546875 -8.4375 3.78125 -8.144531 3.15625 -7.5625 C 2.539062 -6.988281 2.191406 -6.234375 2.109375 -5.296875 L 8.8125 -5.296875 C 8.726562 -6.234375 8.378906 -6.988281 7.765625 -7.5625 C 7.148438 -8.144531 6.378906 -8.4375 5.453125 -8.4375 Z M 5.453125 -8.4375 "/></g></g></g><g fill="#385731" fill-opacity="1"><g transform="translate(292.723727, 350.935525)"><g><path d="M 10.421875 -13.359375 L 10.421875 0 L 9.203125 0 L 9.203125 -1.875 C 8.816406 -1.238281 8.304688 -0.75 7.671875 -0.40625 C 7.046875 -0.0703125 6.335938 0.09375 5.546875 0.09375 C 4.660156 0.09375 3.851562 -0.109375 3.125 -0.515625 C 2.40625 -0.929688 1.84375 -1.503906 1.4375 -2.234375 C 1.03125 -2.960938 0.828125 -3.796875 0.828125 -4.734375 C 0.828125 -5.671875 1.03125 -6.503906 1.4375 -7.234375 C 1.84375 -7.960938 2.40625 -8.53125 3.125 -8.9375 C 3.851562 -9.34375 4.660156 -9.546875 5.546875 -9.546875 C 6.316406 -9.546875 7.007812 -9.382812 7.625 -9.0625 C 8.238281 -8.75 8.742188 -8.285156 9.140625 -7.671875 L 9.140625 -13.359375 Z M 5.65625 -1.046875 C 6.3125 -1.046875 6.90625 -1.195312 7.4375 -1.5 C 7.976562 -1.8125 8.398438 -2.25 8.703125 -2.8125 C 9.003906 -3.375 9.15625 -4.015625 9.15625 -4.734375 C 9.15625 -5.453125 9.003906 -6.09375 8.703125 -6.65625 C 8.398438 -7.21875 7.976562 -7.648438 7.4375 -7.953125 C 6.90625 -8.265625 6.3125 -8.421875 5.65625 -8.421875 C 4.976562 -8.421875 4.375 -8.265625 3.84375 -7.953125 C 3.3125 -7.648438 2.890625 -7.21875 2.578125 -6.65625 C 2.273438 -6.09375 2.125 -5.453125 2.125 -4.734375 C 2.125 -4.015625 2.273438 -3.375 2.578125 -2.8125 C 2.890625 -2.25 3.3125 -1.8125 3.84375 -1.5 C 4.375 -1.195312 4.976562 -1.046875 5.65625 -1.046875 Z M 5.65625 -1.046875 "/></g></g></g></svg>